<svg width="466" height="95" viewBox="0 0 466 95" fill="none" xmlns="http://www.w3.org/2000/svg">
<path d="M39.6605 26.5568V38.7869H0V26.5568H39.6605ZM9.91513 93.6477V20.2234C9.91513 15.7099 10.8469 11.9535 12.7106 8.95419C14.6033 5.9549 17.1367 3.71272 20.3107 2.22763C23.4847 0.742543 27.0082 0 30.881 0C33.6183 0 36.0497 0.218397 38.1754 0.65519C40.3011 1.09198 41.8736 1.48509 42.8928 1.83452L39.7479 14.0646C39.0781 13.8608 38.2337 13.657 37.2145 13.4531C36.1953 13.2202 35.0597 13.1037 33.8075 13.1037C30.8665 13.1037 28.7844 13.8171 27.5614 15.244C26.3675 16.6417 25.7706 18.6509 25.7706 21.2717V93.6477H9.91513Z" fill="#0F1115"/>
<path d="M43.4335 93.6477V26.5568H58.7648V37.7386H59.4637C60.6867 33.8658 62.7833 30.881 65.7535 28.7845C68.7527 26.6587 72.1743 25.5959 76.018 25.5959C76.8916 25.5959 77.8671 25.6396 78.9445 25.7269C80.051 25.7852 80.9683 25.8871 81.6963 26.0327V40.5778C81.0265 40.3448 79.9637 40.141 78.5077 39.9663C77.0809 39.7624 75.6977 39.6605 74.3582 39.6605C71.4754 39.6605 68.8838 40.2866 66.5834 41.5387C64.3121 42.7617 62.5212 44.4652 61.2108 46.6492C59.9005 48.8331 59.2453 51.3519 59.2453 54.2056V93.6477H43.4335Z" fill="#0F1115"/>
<path d="M110.53 94.9581C103.804 94.9581 97.9942 93.5604 93.1022 90.7649C88.2393 87.9403 84.4974 83.951 81.8767 78.7969C79.2559 73.6136 77.9456 67.5131 77.9456 60.4954C77.9456 53.5941 79.2559 47.5373 81.8767 42.3249C84.5265 37.0835 88.2247 33.0068 92.9711 30.0948C97.7176 27.1538 103.294 25.6832 109.7 25.6832C113.835 25.6832 117.737 26.353 121.406 27.6925C125.104 29.0028 128.366 31.0412 131.19 33.8075C134.044 36.5739 136.286 40.0973 137.917 44.3778C139.547 48.6293 140.363 53.696 140.363 59.5781V64.4265H85.371V53.7688H125.206C125.177 50.7404 124.522 48.0469 123.241 45.6882C121.959 43.3004 120.169 41.4222 117.868 40.0536C115.597 38.685 112.947 38.0007 109.919 38.0007C106.686 38.0007 103.847 38.7869 101.401 40.3594C98.9552 41.9027 97.0478 43.9411 95.6792 46.4744C94.3397 48.9787 93.6554 51.7305 93.6263 54.7298V64.0334C93.6263 67.9354 94.3397 71.2841 95.7666 74.0796C97.1934 76.8459 99.1881 78.9716 101.751 80.4567C104.313 81.9126 107.312 82.6406 110.748 82.6406C113.049 82.6406 115.131 82.3203 116.995 81.6797C118.858 81.01 120.474 80.0345 121.843 78.7532C123.212 77.472 124.245 75.885 124.944 73.9922L139.708 75.652C138.776 79.554 137 82.9609 134.379 85.8729C131.787 88.7557 128.468 90.9979 124.42 92.5994C120.372 94.1719 115.742 94.9581 110.53 94.9581Z" fill="#0F1115"/>
<path d="M174.831 94.9581C168.105 94.9581 162.295 93.5604 157.403 90.7649C152.54 87.9403 148.799 83.951 146.178 78.7969C143.557 73.6136 142.247 67.5131 142.247 60.4954C142.247 53.5941 143.557 47.5373 146.178 42.3249C148.828 37.0835 152.526 33.0068 157.272 30.0948C162.019 27.1538 167.595 25.6832 174.001 25.6832C178.136 25.6832 182.038 26.353 185.707 27.6925C189.405 29.0028 192.667 31.0412 195.491 33.8075C198.345 36.5739 200.587 40.0973 202.218 44.3778C203.849 48.6293 204.664 53.696 204.664 59.5781V64.4265H149.672V53.7688H189.507C189.478 50.7404 188.823 48.0469 187.542 45.6882C186.261 43.3004 184.47 41.4222 182.169 40.0536C179.898 38.685 177.248 38.0007 174.22 38.0007C170.987 38.0007 168.148 38.7869 165.702 40.3594C163.256 41.9027 161.349 43.9411 159.98 46.4744C158.641 48.9787 157.957 51.7305 157.927 54.7298V64.0334C157.927 67.9354 158.641 71.2841 160.068 74.0796C161.495 76.8459 163.489 78.9716 166.052 80.4567C168.614 81.9126 171.614 82.6406 175.05 82.6406C177.35 82.6406 179.432 82.3203 181.296 81.6797C183.159 81.01 184.775 80.0345 186.144 78.7532C187.513 77.472 188.546 75.885 189.245 73.9922L204.009 75.652C203.077 79.554 201.301 82.9609 198.68 85.8729C196.088 88.7557 192.769 90.9979 188.721 92.5994C184.674 94.1719 180.044 94.9581 174.831 94.9581Z" fill="#0F1115"/>
<path d="M234.328 94.8271C229.057 94.8271 224.34 93.473 220.176 90.7649C216.012 88.0568 212.721 84.1257 210.304 78.9716C207.887 73.8175 206.679 67.5568 206.679 60.1896C206.679 52.7351 207.902 46.4453 210.348 41.3203C212.823 36.1662 216.157 32.2788 220.35 29.658C224.544 27.0082 229.217 25.6832 234.371 25.6832C238.302 25.6832 241.535 26.353 244.068 27.6925C246.601 29.0028 248.611 30.5898 250.096 32.4535C251.581 34.288 252.731 36.0206 253.546 37.6513H254.202V4.19319H270.057V93.6477H254.507V83.0774H253.546C252.731 84.7081 251.552 86.4407 250.008 88.2752C248.465 90.0806 246.427 91.6239 243.893 92.9052C241.36 94.1864 238.171 94.8271 234.328 94.8271ZM238.739 81.8544C242.088 81.8544 244.942 80.9517 247.3 79.1463C249.659 77.3118 251.45 74.7639 252.673 71.5025C253.896 68.2411 254.507 64.4411 254.507 60.1023C254.507 55.7635 253.896 51.9925 252.673 48.7894C251.479 45.5863 249.703 43.0966 247.344 41.3203C245.014 39.544 242.146 38.6559 238.739 38.6559C235.216 38.6559 232.275 39.5732 229.916 41.4077C227.557 43.2422 225.781 45.7756 224.587 49.0078C223.393 52.2401 222.796 55.9382 222.796 60.1023C222.796 64.2955 223.393 68.0373 224.587 71.3278C225.81 74.5891 227.601 77.1662 229.96 79.059C232.348 80.9226 235.274 81.8544 238.739 81.8544Z" fill="#0F1115"/>
<path d="M307.561 94.9581C301.009 94.9581 295.331 93.5167 290.526 90.6339C285.722 87.7511 281.994 83.718 279.345 78.5348C276.724 73.3516 275.413 67.2948 275.413 60.3644C275.413 53.434 276.724 47.3626 279.345 42.1502C281.994 36.9379 285.722 32.8903 290.526 30.0075C295.331 27.1247 301.009 25.6832 307.561 25.6832C314.113 25.6832 319.791 27.1247 324.596 30.0075C329.401 32.8903 333.113 36.9379 335.734 42.1502C338.384 47.3626 339.709 53.434 339.709 60.3644C339.709 67.2948 338.384 73.3516 335.734 78.5348C333.113 83.718 329.401 87.7511 324.596 90.6339C319.791 93.5167 314.113 94.9581 307.561 94.9581ZM307.649 82.2912C311.201 82.2912 314.171 81.3157 316.559 79.3647C318.947 77.3846 320.723 74.7347 321.888 71.4151C323.082 68.0955 323.679 64.3974 323.679 60.3207C323.679 56.2148 323.082 52.5021 321.888 49.1825C320.723 45.8338 318.947 43.1694 316.559 41.1893C314.171 39.2092 311.201 38.2191 307.649 38.2191C304.009 38.2191 300.98 39.2092 298.563 41.1893C296.176 43.1694 294.385 45.8338 293.191 49.1825C292.026 52.5021 291.444 56.2148 291.444 60.3207C291.444 64.3974 292.026 68.0955 293.191 71.4151C294.385 74.7347 296.176 77.3846 298.563 79.3647C300.98 81.3157 304.009 82.2912 307.649 82.2912Z" fill="#0F1115"/>
<path d="M344.519 93.6477V26.5568H359.632V37.957H360.418C361.816 34.1133 364.131 31.114 367.363 28.9592C370.596 26.7752 374.454 25.6832 378.938 25.6832C383.481 25.6832 387.31 26.7898 390.426 29.0028C393.571 31.1868 395.784 34.1715 397.065 37.957H397.764C399.249 34.2298 401.753 31.2596 405.277 29.0465C408.829 26.8043 413.037 25.6832 417.9 25.6832C424.073 25.6832 429.111 27.6342 433.013 31.5362C436.915 35.4382 438.866 41.131 438.866 48.6147V93.6477H423.01V51.0607C423.01 46.8967 421.904 43.8537 419.691 41.9318C417.478 39.9808 414.77 39.0053 411.566 39.0053C407.752 39.0053 404.767 40.1992 402.612 42.587C400.487 44.9457 399.424 48.0178 399.424 51.8033V93.6477H383.918V50.4055C383.918 46.9403 382.869 44.174 380.773 42.1065C378.705 40.0391 375.997 39.0053 372.648 39.0053C370.377 39.0053 368.31 39.5877 366.446 40.7525C364.582 41.8881 363.097 43.5043 361.991 45.6009C360.884 47.6683 360.331 50.0852 360.331 52.8516V93.6477H344.519Z" fill="#0F1115"/>
<path d="M456.037 94.6087C453.387 94.6087 451.116 93.6768 449.223 91.8132C447.331 89.9496 446.399 87.6783 446.428 84.9993C446.399 82.3785 447.331 80.1364 449.223 78.2727C451.116 76.4091 453.387 75.4773 456.037 75.4773C458.6 75.4773 460.827 76.4091 462.72 78.2727C464.642 80.1364 465.618 82.3785 465.647 84.9993C465.618 86.7756 465.152 88.3917 464.249 89.8476C463.375 91.3036 462.211 92.4684 460.755 93.342C459.328 94.1864 457.755 94.6087 456.037 94.6087Z" fill="#00E9C4"/>
<path d="M449.223 43.941C451.116 45.8047 453.387 46.7365 456.037 46.7365C457.755 46.7365 459.328 46.2997 460.755 45.4261C462.211 44.5526 463.375 43.3878 464.249 41.9318C465.152 40.4759 465.618 38.8743 465.647 37.1271C465.618 34.5064 464.642 32.2642 462.72 30.4006C460.827 28.5078 458.6 27.5614 456.037 27.5614C453.387 27.5614 451.116 28.5078 449.223 30.4006C447.331 32.2642 446.399 34.5064 446.428 37.1271C446.399 39.777 447.331 42.0483 449.223 43.941Z" fill="#FFB111"/>
</svg>
